<svg width="18" height="16" viewBox="0 0 18 16" fill="none" xmlns="http://www.w3.org/2000/svg">
<path fill-rule="evenodd" clip-rule="evenodd" d="M16.8663 9.66101C14.6488 9.66101 14.6488 6.23232 16.8663 6.23232C16.8663 2.25969 16.8663 0.841797 9.03718 0.841797C1.20801 0.841797 1.20801 2.25969 1.20801 6.23232C3.42551 6.23232 3.42551 9.66101 1.20801 9.66101C1.20801 13.6344 1.20801 15.0523 9.03718 15.0523C16.8663 15.0523 16.8663 13.6344 16.8663 9.66101Z" stroke="white" stroke-width="1.5" stroke-linecap="round" stroke-linejoin="round"/>
<path fill-rule="evenodd" clip-rule="evenodd" d="M9.0367 5.64258C8.46753 5.64258 8.41337 6.55047 8.07503 6.87179C7.73587 7.19231 6.68337 6.826 6.5367 7.39521C6.39087 7.96521 7.33837 8.15863 7.45587 8.64731C7.57253 9.136 6.9942 9.82284 7.48837 10.1655C7.98337 10.5065 8.51587 9.73363 9.0367 9.73363C9.55753 9.73363 10.09 10.5065 10.585 10.1655C11.08 9.82284 10.5009 9.136 10.6175 8.64731C10.735 8.15863 11.6825 7.96521 11.5367 7.39521C11.39 6.826 10.3375 7.19231 9.99837 6.87179C9.66003 6.55047 9.60587 5.64258 9.0367 5.64258Z" stroke="white" stroke-width="1.5" stroke-linecap="round" stroke-linejoin="round"/>
</svg>
